<?xml version="1.0" encoding="UTF-8" standalone="no"?>
<!DOCTYPE svg PUBLIC "-//W3C//DTD SVG 1.1//EN"
 "http://www.w3.org/Graphics/SVG/1.1/DTD/svg11.dtd">
<!-- Generated by graphviz version 2.50.0 (20211204.2007)
 -->
<!-- Title: G Pages: 1 -->
<svg width="1186pt" height="501pt"
 viewBox="0.00 0.00 1185.97 500.67" xmlns="http://www.w3.org/2000/svg" xmlns:xlink="http://www.w3.org/1999/xlink">
<g id="graph0" class="graph" transform="scale(1 1) rotate(0) translate(4 496.67)">
<title>G</title>
<polygon fill="white" stroke="transparent" points="-4,4 -4,-496.67 1181.97,-496.67 1181.97,4 -4,4"/>
<!-- US0 -->
<g id="node1" class="node">
<title>US0</title>
<ellipse fill="none" stroke="black" cx="560.97" cy="-444.58" rx="351.36" ry="48.17"/>
<text text-anchor="middle" x="560.97" y="-463.38" font-family="Times New Roman,serif" font-size="14.00">nick:yoshi</text>
<text text-anchor="middle" x="560.97" y="-448.38" font-family="Times New Roman,serif" font-size="14.00">password:1edcedc6375e26a9c1891d33e98ae4f0c2575f2e0a18cdf7a1cd075035a68b1b</text>
<text text-anchor="middle" x="560.97" y="-433.38" font-family="Times New Roman,serif" font-size="14.00">edad:15</text>
<text text-anchor="middle" x="560.97" y="-418.38" font-family="Times New Roman,serif" font-size="14.00">monedas:0</text>
</g>
<!-- US1 -->
<g id="node2" class="node">
<title>US1</title>
<ellipse fill="none" stroke="black" cx="354.97" cy="-312.42" rx="354.94" ry="48.17"/>
<text text-anchor="middle" x="354.97" y="-331.22" font-family="Times New Roman,serif" font-size="14.00">nick:auxEDD</text>
<text text-anchor="middle" x="354.97" y="-316.22" font-family="Times New Roman,serif" font-size="14.00">password:797f7032074378fb57f503200c45a33e1b3bee63f13810bc97d42b6002d2b7db</text>
<text text-anchor="middle" x="354.97" y="-301.22" font-family="Times New Roman,serif" font-size="14.00">edad:55</text>
<text text-anchor="middle" x="354.97" y="-286.22" font-family="Times New Roman,serif" font-size="14.00">monedas:200</text>
</g>
<!-- US0&#45;&gt;US1 -->
<g id="edge1" class="edge">
<title>US0&#45;&gt;US1</title>
<path fill="none" stroke="black" d="M481.86,-397.69C464.99,-387.22 447.21,-376.02 430.48,-365.32"/>
<polygon fill="black" stroke="black" points="432.14,-362.22 421.83,-359.77 428.36,-368.12 432.14,-362.22"/>
</g>
<!-- US3 -->
<g id="node4" class="node">
<title>US3</title>
<ellipse fill="none" stroke="black" cx="550.97" cy="-48.08" rx="351.36" ry="48.17"/>
<text text-anchor="middle" x="550.97" y="-66.88" font-family="Times New Roman,serif" font-size="14.00">nick:EDD</text>
<text text-anchor="middle" x="550.97" y="-51.88" font-family="Times New Roman,serif" font-size="14.00">password:e499b6ff1956844bea537fb096a603c07605074d75dc209349d152fbf6286111</text>
<text text-anchor="middle" x="550.97" y="-36.88" font-family="Times New Roman,serif" font-size="14.00">edad:45</text>
<text text-anchor="middle" x="550.97" y="-21.88" font-family="Times New Roman,serif" font-size="14.00">monedas:100</text>
</g>
<!-- US0&#45;&gt;US3 -->
<g id="edge8" class="edge">
<title>US0&#45;&gt;US3</title>
<path fill="none" stroke="black" d="M672.74,-398.97C687.48,-388.57 700.67,-375.89 709.97,-360.5 720.29,-343.41 716.19,-146.76 706.97,-132.17 699.03,-119.61 688.57,-108.88 676.81,-99.72"/>
<polygon fill="black" stroke="black" points="678.61,-96.7 668.47,-93.63 674.48,-102.35 678.61,-96.7"/>
</g>
<!-- US1&#45;&gt;US0 -->
<g id="edge7" class="edge">
<title>US1&#45;&gt;US0</title>
<path fill="none" stroke="black" d="M434.08,-359.31C450.99,-369.81 468.81,-381.04 485.59,-391.77"/>
<polygon fill="black" stroke="black" points="483.95,-394.87 494.25,-397.32 487.72,-388.98 483.95,-394.87"/>
</g>
<!-- US2 -->
<g id="node3" class="node">
<title>US2</title>
<ellipse fill="none" stroke="black" cx="357.97" cy="-180.25" rx="348.71" ry="48.17"/>
<text text-anchor="middle" x="357.97" y="-199.05" font-family="Times New Roman,serif" font-size="14.00">nick:aux</text>
<text text-anchor="middle" x="357.97" y="-184.05" font-family="Times New Roman,serif" font-size="14.00">password:321f68140efca2b301c8c9e9cd67f0e0e3f89a6b24ca923c13bade1ee6552073</text>
<text text-anchor="middle" x="357.97" y="-169.05" font-family="Times New Roman,serif" font-size="14.00">edad:35</text>
<text text-anchor="middle" x="357.97" y="-154.05" font-family="Times New Roman,serif" font-size="14.00">monedas:20</text>
</g>
<!-- US1&#45;&gt;US2 -->
<g id="edge2" class="edge">
<title>US1&#45;&gt;US2</title>
<path fill="none" stroke="black" d="M349.54,-264.05C349.51,-255.79 349.65,-247.1 349.94,-238.6"/>
<polygon fill="black" stroke="black" points="353.45,-238.5 350.37,-228.36 346.45,-238.2 353.45,-238.5"/>
</g>
<!-- US2&#45;&gt;US1 -->
<g id="edge6" class="edge">
<title>US2&#45;&gt;US1</title>
<path fill="none" stroke="black" d="M363.4,-228.36C363.43,-236.62 363.29,-245.3 363.01,-253.8"/>
<polygon fill="black" stroke="black" points="359.5,-253.92 362.58,-264.05 366.49,-254.21 359.5,-253.92"/>
</g>
<!-- US2&#45;&gt;US3 -->
<g id="edge3" class="edge">
<title>US2&#45;&gt;US3</title>
<path fill="none" stroke="black" d="M420.33,-132.81C435.39,-122.46 451.71,-111.42 467.56,-100.87"/>
<polygon fill="black" stroke="black" points="469.9,-103.52 476.3,-95.07 466.03,-97.68 469.9,-103.52"/>
</g>
<!-- US3&#45;&gt;US0 -->
<g id="edge4" class="edge">
<title>US3&#45;&gt;US0</title>
<path fill="none" stroke="black" d="M685.05,-92.81C700.89,-103.35 714.95,-116.31 724.97,-132.17 734.19,-146.76 738.29,-343.41 727.97,-360.5 720.15,-373.45 709.57,-384.48 697.5,-393.85"/>
<polygon fill="black" stroke="black" points="695.39,-391.06 689.37,-399.78 699.51,-396.72 695.39,-391.06"/>
</g>
<!-- US3&#45;&gt;US2 -->
<g id="edge5" class="edge">
<title>US3&#45;&gt;US2</title>
<path fill="none" stroke="black" d="M488.59,-95.54C473.57,-105.86 457.3,-116.86 441.49,-127.39"/>
<polygon fill="black" stroke="black" points="439.17,-124.73 432.77,-133.17 443.04,-130.56 439.17,-124.73"/>
</g>
<!-- N_0 -->
<g id="node5" class="node">
<title>N_0</title>
<ellipse fill="none" stroke="black" cx="1001.97" cy="-444.58" rx="51.19" ry="18"/>
<text text-anchor="middle" x="1001.97" y="-440.88" font-family="Times New Roman,serif" font-size="14.00">Legendario</text>
</g>
<!-- N_1 -->
<g id="node6" class="node">
<title>N_1</title>
<ellipse fill="none" stroke="black" cx="1001.97" cy="-312.42" rx="28.7" ry="18"/>
<text text-anchor="middle" x="1001.97" y="-308.72" font-family="Times New Roman,serif" font-size="14.00">Raro</text>
</g>
<!-- N_0&#45;&gt;N_1 -->
<g id="edge9" class="edge">
<title>N_0&#45;&gt;N_1</title>
<path fill="none" stroke="black" d="M1001.97,-426.57C1001.97,-404.74 1001.97,-366.61 1001.97,-340.71"/>
<polygon fill="black" stroke="black" points="1005.47,-340.44 1001.97,-330.44 998.47,-340.44 1005.47,-340.44"/>
</g>
<!-- N_0_0 -->
<g id="node8" class="node">
<title>N_0_0</title>
<ellipse fill="none" stroke="black" cx="1097.97" cy="-444.58" rx="27" ry="18"/>
<text text-anchor="middle" x="1097.97" y="-440.88" font-family="Times New Roman,serif" font-size="14.00">B4</text>
</g>
<!-- N_0&#45;&gt;N_0_0 -->
<g id="edge14" class="edge">
<title>N_0&#45;&gt;N_0_0</title>
<path fill="none" stroke="black" d="M1053.34,-444.58C1055.79,-444.58 1058.25,-444.58 1060.7,-444.58"/>
<polygon fill="black" stroke="black" points="1060.77,-448.08 1070.77,-444.58 1060.77,-441.08 1060.77,-448.08"/>
</g>
<!-- N_2 -->
<g id="node7" class="node">
<title>N_2</title>
<ellipse fill="none" stroke="black" cx="1001.97" cy="-180.25" rx="32.49" ry="18"/>
<text text-anchor="middle" x="1001.97" y="-176.55" font-family="Times New Roman,serif" font-size="14.00">Epico</text>
</g>
<!-- N_1&#45;&gt;N_2 -->
<g id="edge10" class="edge">
<title>N_1&#45;&gt;N_2</title>
<path fill="none" stroke="black" d="M1001.97,-294.4C1001.97,-272.57 1001.97,-234.45 1001.97,-208.54"/>
<polygon fill="black" stroke="black" points="1005.47,-208.27 1001.97,-198.27 998.47,-208.27 1005.47,-208.27"/>
</g>
<!-- N_1_0 -->
<g id="node9" class="node">
<title>N_1_0</title>
<ellipse fill="none" stroke="black" cx="1075.97" cy="-312.42" rx="27" ry="18"/>
<text text-anchor="middle" x="1075.97" y="-308.72" font-family="Times New Roman,serif" font-size="14.00">B3</text>
</g>
<!-- N_1&#45;&gt;N_1_0 -->
<g id="edge13" class="edge">
<title>N_1&#45;&gt;N_1_0</title>
<path fill="none" stroke="black" d="M1030.58,-312.42C1033.22,-312.42 1035.86,-312.42 1038.5,-312.42"/>
<polygon fill="black" stroke="black" points="1038.67,-315.92 1048.67,-312.42 1038.67,-308.92 1038.67,-315.92"/>
</g>
<!-- N_2_0 -->
<g id="node10" class="node">
<title>N_2_0</title>
<ellipse fill="none" stroke="black" cx="1078.97" cy="-180.25" rx="27" ry="18"/>
<text text-anchor="middle" x="1078.97" y="-176.55" font-family="Times New Roman,serif" font-size="14.00">B2</text>
</g>
<!-- N_2&#45;&gt;N_2_0 -->
<g id="edge11" class="edge">
<title>N_2&#45;&gt;N_2_0</title>
<path fill="none" stroke="black" d="M1034.75,-180.25C1037.04,-180.25 1039.34,-180.25 1041.63,-180.25"/>
<polygon fill="black" stroke="black" points="1041.68,-183.75 1051.68,-180.25 1041.68,-176.75 1041.68,-183.75"/>
</g>
<!-- N_2_1 -->
<g id="node11" class="node">
<title>N_2_1</title>
<ellipse fill="none" stroke="black" cx="1150.97" cy="-180.25" rx="27" ry="18"/>
<text text-anchor="middle" x="1150.97" y="-176.55" font-family="Times New Roman,serif" font-size="14.00">B1</text>
</g>
<!-- N_2_0&#45;&gt;N_2_1 -->
<g id="edge12" class="edge">
<title>N_2_0&#45;&gt;N_2_1</title>
<path fill="none" stroke="black" d="M1105.97,-180.25C1108.58,-180.25 1111.2,-180.25 1113.81,-180.25"/>
<polygon fill="black" stroke="black" points="1113.9,-183.75 1123.9,-180.25 1113.9,-176.75 1113.9,-183.75"/>
</g>
</g>
</svg>
